<svg width="50" height="48" viewBox="0 0 50 48" fill="none" xmlns="http://www.w3.org/2000/svg">
<path d="M36.25 0C31.9 0 27.725 2.1188 25 5.46703C22.275 2.1188 18.1 0 13.75 0C6.05 0 0 6.33025 0 14.3869C0 24.2747 8.5 32.3313 21.375 44.5733L25 48L28.625 44.5471C41.5 32.3313 50 24.2747 50 14.3869C50 6.33025 43.95 0 36.25 0ZM25.25 40.6757L25 40.9373L24.75 40.6757C12.85 29.4016 5 21.9466 5 14.3869C5 9.15531 8.75 5.23161 13.75 5.23161C17.6 5.23161 21.35 7.82125 22.675 11.4049H27.35C28.65 7.82125 32.4 5.23161 36.25 5.23161C41.25 5.23161 45 9.15531 45 14.3869C45 21.9466 37.15 29.4016 25.25 40.6757Z" fill="#1FDB54"/>
</svg>
