<svg width="111" height="77" viewBox="0 0 111 77" fill="none" xmlns="http://www.w3.org/2000/svg">
<path opacity="0.5" fill-rule="evenodd" clip-rule="evenodd" d="M4.5 0C2.01472 0 0 2.01472 0 4.5V42.2892C0 44.7745 2.01471 46.7892 4.5 46.7892H28.0349L22.1518 50.7887C20.9195 51.6265 20.1818 53.02 20.1818 54.5102V71.7008C20.1818 75.3135 24.2242 77.4534 27.2118 75.4223L48.4845 60.9604C49.7169 60.1226 50.4546 58.7291 50.4546 57.2389V31.5476L50.4545 4.5C50.4545 2.01472 48.4398 0 45.9545 0H4.5ZM60.5455 4.5C60.5455 2.01472 62.5602 0 65.0455 0H106.5C108.985 0 111 2.01472 111 4.5V46.7892L111 57.2389C111 58.7291 110.262 60.1226 109.03 60.9604L87.7572 75.4223C84.7696 77.4534 80.7273 75.3135 80.7273 71.7008V54.5102C80.7273 53.02 81.465 51.6265 82.6973 50.7887L88.5803 46.7892H65.0455C62.5602 46.7892 60.5455 44.7745 60.5455 42.2892V4.5Z" fill="#1FDB54" fill-opacity="0.5"/>
</svg>
